<?xml version="1.0" standalone="no"?>
<!DOCTYPE svg PUBLIC "-//W3C//DTD SVG 20010904//EN"
 "http://www.w3.org/TR/2001/REC-SVG-20010904/DTD/svg10.dtd">
<svg version="1.0" xmlns="http://www.w3.org/2000/svg"
 width="426.000000pt" height="586.000000pt" viewBox="0 0 426.000000 586.000000"
 preserveAspectRatio="xMidYMid meet">

<g transform="translate(0.000000,586.000000) scale(0.100000,-0.100000)"
fill="#000000" stroke="none">
<path d="M3433 4991 c-56 -9 -104 -18 -107 -21 -3 -3 1 -357 9 -785 8 -429 19
-1115 25 -1525 6 -410 15 -954 20 -1210 5 -256 10 -525 10 -597 l0 -133 -387
0 -388 1 -49 87 c-28 48 -83 142 -123 210 -40 68 -73 125 -73 127 0 1 -18 32
-40 68 -21 36 -94 159 -161 274 -150 256 -236 403 -249 423 -5 8 -22 38 -38
65 -173 302 -326 558 -329 549 -2 -10 -39 -516 -48 -674 -3 -58 -15 -222 -26
-365 -16 -224 -49 -715 -49 -752 0 -10 -108 -13 -506 -13 l-506 0 5 33 c2 17
11 66 20 107 9 41 27 134 41 205 13 72 39 202 56 290 56 291 78 408 110 580
36 195 88 465 124 640 13 66 34 176 46 245 21 122 57 305 105 540 24 115 40
200 135 705 71 379 79 417 83 422 4 4 55 13 422 77 239 42 212 41 224 4 5 -18
73 -233 151 -478 77 -245 155 -488 171 -540 47 -151 61 -195 179 -565 61 -192
125 -395 142 -450 61 -201 57 -269 58 1089 l0 1239 -72 -7 c-40 -4 -129 -16
-198 -26 -69 -10 -154 -21 -190 -25 -36 -3 -105 -13 -155 -20 -85 -13 -329
-46 -600 -80 -66 -8 -170 -22 -232 -31 l-112 -16 -16 -97 c-9 -53 -25 -141
-36 -196 -10 -55 -28 -154 -39 -220 -11 -66 -31 -181 -44 -255 -13 -74 -38
-214 -56 -310 -17 -96 -42 -236 -55 -310 -13 -74 -38 -216 -55 -315 -18 -99
-40 -227 -50 -285 -10 -58 -37 -208 -60 -335 -23 -126 -50 -277 -60 -335 -10
-58 -30 -170 -44 -250 -14 -80 -37 -208 -50 -285 -14 -77 -43 -243 -66 -370
-23 -126 -48 -273 -55 -325 -7 -52 -20 -133 -29 -180 -30 -164 -67 -373 -81
-458 -8 -48 -17 -97 -20 -110 l-5 -22 1708 0 1709 0 7 2502 c3 1375 5 2502 4
2503 -2 1 -49 -6 -105 -14z m-3035 -4388 l3 -22 36 25 c29 19 49 24 99 24 56
0 67 -3 98 -31 48 -42 56 -78 56 -261 l0 -158 -45 0 -45 0 0 165 c0 163 0 166
-25 190 -27 28 -68 32 -110 13 -47 -21 -55 -53 -55 -218 l0 -150 -39 0 c-31 0
-41 4 -46 21 -7 22 -4 408 3 422 2 4 18 7 35 5 24 -2 33 -8 35 -25z m689 7
c52 -31 57 -51 64 -230 3 -91 9 -173 13 -182 7 -16 3 -18 -33 -18 -30 0 -43 5
-51 20 l-11 21 -33 -20 c-47 -30 -136 -38 -189 -17 -52 20 -77 58 -77 119 0
54 33 100 83 116 25 9 188 41 205 41 1 0 2 15 2 34 0 47 -29 66 -98 66 -44 0
-57 -4 -77 -26 -14 -15 -25 -34 -25 -42 0 -11 -8 -13 -37 -7 -21 4 -40 8 -41
10 -11 10 23 77 48 95 45 32 70 39 150 39 57 1 82 -4 107 -19z m420 3 c25 -12
41 -29 55 -61 11 -24 18 -45 16 -47 -1 -1 -19 -5 -38 -8 -31 -6 -37 -3 -55 26
-18 29 -26 32 -76 35 -61 3 -89 -12 -89 -47 0 -26 15 -35 107 -61 102 -28 140
-51 159 -96 32 -76 -29 -166 -121 -180 -52 -7 -120 0 -156 16 -56 26 -105 130
-61 130 9 0 27 3 40 6 15 5 22 2 22 -8 0 -26 39 -66 70 -73 46 -10 109 4 121
27 15 28 3 66 -24 73 -202 57 -237 81 -237 159 0 48 19 80 64 107 41 25 153
26 203 2z m443 -4 c40 -23 85 -90 76 -114 -3 -9 -19 -15 -40 -15 -26 0 -36 5
-41 20 -12 37 -46 60 -90 60 -76 0 -115 -54 -115 -162 0 -107 45 -164 123
-154 46 5 72 27 87 72 11 33 13 34 48 28 21 -4 39 -8 40 -10 11 -9 -26 -82
-58 -114 -29 -29 -50 -40 -84 -45 -93 -14 -159 12 -205 81 -32 49 -37 79 -32
184 5 83 48 154 111 179 46 18 139 13 180 -10z m447 -17 c45 -35 71 -89 80
-164 l6 -48 -162 0 -161 0 0 -30 c0 -60 55 -110 122 -110 41 0 73 21 94 61 14
27 18 29 52 23 20 -4 39 -9 42 -11 11 -10 -46 -95 -76 -114 -71 -44 -195 -34
-257 20 -85 75 -90 265 -8 355 40 44 77 57 157 54 62 -3 75 -7 111 -36z m233
6 c0 -27 2 -29 13 -16 41 51 151 67 213 29 55 -34 64 -69 64 -260 l0 -171 -40
0 -40 0 0 133 c0 157 -6 199 -32 226 -29 32 -90 28 -130 -8 l-33 -29 -3 -161
-4 -161 -39 0 -39 0 0 225 0 225 35 0 c33 0 35 -2 35 -32z m690 17 c49 -26 57
-55 63 -230 2 -88 8 -170 12 -183 7 -20 4 -22 -35 -22 -33 0 -43 4 -47 20 -7
24 -4 25 -47 -1 -48 -28 -140 -36 -188 -16 -74 31 -100 121 -54 188 27 40 73
58 204 79 70 11 72 13 72 41 0 46 -34 69 -101 69 -51 0 -60 -3 -82 -30 -14
-16 -27 -34 -29 -41 -3 -8 -15 -9 -37 -4 -31 7 -33 9 -27 38 8 37 40 75 81 93
42 19 178 18 215 -1z"/>
<path d="M995 378 c-115 -27 -127 -32 -138 -55 -36 -79 103 -116 175 -46 22
21 28 36 28 70 0 47 0 47 -65 31z"/>
<path d="M2191 525 c-17 -20 -31 -45 -31 -55 0 -19 7 -20 114 -20 l115 0 -10
33 c-14 50 -51 77 -109 77 -42 0 -51 -4 -79 -35z"/>
<path d="M3225 379 c-128 -30 -135 -34 -135 -81 0 -35 33 -58 83 -58 74 0 127
50 127 120 0 33 -6 35 -75 19z"/>
</g>
</svg>
